<svg xmlns="http://www.w3.org/2000/svg" xmlns:xlink="http://www.w3.org/1999/xlink" width="500" zoomAndPan="magnify" viewBox="0 0 375 374.999991" height="500" preserveAspectRatio="xMidYMid meet" version="1.0"><defs><clipPath id="e59e1042a0"><path d="M 11.496094 11.496094 L 363.246094 11.496094 L 363.246094 363.246094 L 11.496094 363.246094 Z M 11.496094 11.496094 " clip-rule="nonzero"/></clipPath><clipPath id="ca32893da3"><path d="M 11.496094 11.496094 L 205 11.496094 L 205 363.246094 L 11.496094 363.246094 Z M 11.496094 11.496094 " clip-rule="nonzero"/></clipPath></defs><g clip-path="url(#e59e1042a0)"><path fill="#7ed957" d="M 363.246094 187.371094 C 363.246094 190.25 363.175781 193.128906 363.035156 196 C 362.894531 198.875 362.683594 201.746094 362.398438 204.609375 C 362.117188 207.476562 361.765625 210.332031 361.34375 213.179688 C 360.921875 216.027344 360.429688 218.859375 359.867188 221.683594 C 359.304688 224.507812 358.675781 227.3125 357.976562 230.105469 C 357.277344 232.898438 356.507812 235.671875 355.675781 238.425781 C 354.839844 241.179688 353.9375 243.914062 352.964844 246.621094 C 351.996094 249.332031 350.960938 252.015625 349.859375 254.675781 C 348.757812 257.335938 347.59375 259.964844 346.359375 262.570312 C 345.128906 265.171875 343.835938 267.742188 342.480469 270.277344 C 341.125 272.816406 339.703125 275.320312 338.226562 277.789062 C 336.746094 280.257812 335.207031 282.691406 333.605469 285.082031 C 332.007812 287.476562 330.351562 289.828125 328.636719 292.140625 C 326.921875 294.453125 325.152344 296.722656 323.324219 298.945312 C 321.5 301.171875 319.621094 303.351562 317.6875 305.484375 C 315.753906 307.617188 313.769531 309.699219 311.734375 311.734375 C 309.699219 313.769531 307.617188 315.753906 305.484375 317.6875 C 303.351562 319.621094 301.171875 321.5 298.945312 323.324219 C 296.722656 325.152344 294.453125 326.921875 292.140625 328.636719 C 289.828125 330.351562 287.476562 332.007812 285.082031 333.605469 C 282.691406 335.207031 280.257812 336.746094 277.789062 338.226562 C 275.320312 339.703125 272.816406 341.125 270.277344 342.480469 C 267.742188 343.835938 265.171875 345.128906 262.566406 346.359375 C 259.964844 347.59375 257.335938 348.757812 254.675781 349.859375 C 252.015625 350.960938 249.332031 351.996094 246.621094 352.964844 C 243.914062 353.9375 241.179688 354.839844 238.425781 355.675781 C 235.671875 356.507812 232.898438 357.277344 230.105469 357.976562 C 227.3125 358.675781 224.507812 359.304688 221.683594 359.867188 C 218.859375 360.429688 216.027344 360.921875 213.179688 361.34375 C 210.332031 361.765625 207.476562 362.117188 204.609375 362.398438 C 201.746094 362.683594 198.875 362.894531 196 363.035156 C 193.128906 363.175781 190.25 363.246094 187.371094 363.246094 C 184.492188 363.246094 181.617188 363.175781 178.742188 363.035156 C 175.867188 362.894531 172.996094 362.683594 170.132812 362.398438 C 167.269531 362.117188 164.414062 361.765625 161.566406 361.34375 C 158.71875 360.921875 155.882812 360.429688 153.0625 359.867188 C 150.238281 359.304688 147.429688 358.675781 144.636719 357.976562 C 141.847656 357.277344 139.074219 356.507812 136.316406 355.675781 C 133.5625 354.839844 130.832031 353.9375 128.121094 352.964844 C 125.410156 351.996094 122.726562 350.960938 120.066406 349.859375 C 117.410156 348.757812 114.777344 347.59375 112.175781 346.359375 C 109.574219 345.128906 107.003906 343.835938 104.464844 342.480469 C 101.925781 341.125 99.421875 339.703125 96.953125 338.226562 C 94.484375 336.746094 92.054688 335.207031 89.660156 333.605469 C 87.269531 332.007812 84.914062 330.351562 82.601562 328.636719 C 80.292969 326.921875 78.023438 325.152344 75.796875 323.324219 C 73.574219 321.5 71.394531 319.621094 69.261719 317.6875 C 67.128906 315.753906 65.046875 313.769531 63.007812 311.734375 C 60.972656 309.699219 58.992188 307.617188 57.058594 305.484375 C 55.125 303.351562 53.246094 301.171875 51.417969 298.945312 C 49.59375 296.722656 47.824219 294.453125 46.109375 292.140625 C 44.394531 289.828125 42.738281 287.476562 41.136719 285.082031 C 39.539062 282.691406 38 280.257812 36.519531 277.789062 C 35.039062 275.320312 33.621094 272.816406 32.265625 270.277344 C 30.90625 267.742188 29.613281 265.171875 28.382812 262.566406 C 27.152344 259.964844 25.984375 257.335938 24.886719 254.675781 C 23.785156 252.015625 22.746094 249.332031 21.777344 246.621094 C 20.808594 243.914062 19.90625 241.179688 19.070312 238.425781 C 18.234375 235.671875 17.46875 232.898438 16.769531 230.105469 C 16.070312 227.3125 15.4375 224.507812 14.875 221.683594 C 14.316406 218.859375 13.824219 216.027344 13.402344 213.179688 C 12.976562 210.332031 12.625 207.476562 12.34375 204.609375 C 12.0625 201.746094 11.851562 198.875 11.710938 196 C 11.566406 193.128906 11.496094 190.25 11.496094 187.371094 C 11.496094 184.492188 11.566406 181.617188 11.710938 178.742188 C 11.851562 175.867188 12.0625 172.996094 12.34375 170.132812 C 12.625 167.269531 12.976562 164.414062 13.402344 161.566406 C 13.824219 158.71875 14.316406 155.882812 14.875 153.0625 C 15.4375 150.238281 16.070312 147.429688 16.769531 144.636719 C 17.46875 141.847656 18.234375 139.074219 19.070312 136.316406 C 19.90625 133.5625 20.808594 130.832031 21.777344 128.121094 C 22.746094 125.410156 23.785156 122.726562 24.886719 120.066406 C 25.984375 117.410156 27.152344 114.777344 28.382812 112.175781 C 29.613281 109.574219 30.90625 107.003906 32.265625 104.464844 C 33.621094 101.925781 35.039062 99.421875 36.519531 96.953125 C 38 94.484375 39.539062 92.054688 41.136719 89.660156 C 42.738281 87.269531 44.394531 84.914062 46.109375 82.601562 C 47.824219 80.292969 49.59375 78.023438 51.417969 75.796875 C 53.246094 73.574219 55.125 71.394531 57.058594 69.261719 C 58.992188 67.128906 60.972656 65.046875 63.007812 63.007812 C 65.046875 60.972656 67.128906 58.992188 69.261719 57.058594 C 71.394531 55.125 73.574219 53.246094 75.796875 51.417969 C 78.023438 49.59375 80.292969 47.824219 82.601562 46.109375 C 84.914062 44.394531 87.269531 42.738281 89.660156 41.136719 C 92.054688 39.539062 94.484375 38 96.953125 36.519531 C 99.421875 35.039062 101.925781 33.621094 104.464844 32.265625 C 107.003906 30.90625 109.574219 29.613281 112.175781 28.382812 C 114.777344 27.152344 117.410156 25.984375 120.066406 24.886719 C 122.726562 23.785156 125.410156 22.746094 128.121094 21.777344 C 130.832031 20.808594 133.5625 19.90625 136.316406 19.070312 C 139.074219 18.234375 141.847656 17.46875 144.636719 16.769531 C 147.429688 16.070312 150.238281 15.4375 153.0625 14.875 C 155.882812 14.316406 158.71875 13.824219 161.566406 13.402344 C 164.414062 12.976562 167.269531 12.625 170.132812 12.34375 C 172.996094 12.0625 175.867188 11.851562 178.742188 11.707031 C 181.617188 11.566406 184.492188 11.496094 187.371094 11.496094 C 190.25 11.496094 193.128906 11.566406 196 11.707031 C 198.875 11.851562 201.746094 12.0625 204.609375 12.34375 C 207.476562 12.625 210.332031 12.976562 213.179688 13.402344 C 216.027344 13.824219 218.859375 14.316406 221.683594 14.875 C 224.507812 15.4375 227.3125 16.070312 230.105469 16.769531 C 232.898438 17.46875 235.671875 18.234375 238.425781 19.070312 C 241.179688 19.90625 243.914062 20.808594 246.621094 21.777344 C 249.332031 22.746094 252.015625 23.785156 254.675781 24.886719 C 257.335938 25.984375 259.964844 27.152344 262.570312 28.382812 C 265.171875 29.613281 267.742188 30.90625 270.277344 32.265625 C 272.816406 33.621094 275.320312 35.039062 277.789062 36.519531 C 280.257812 38 282.691406 39.539062 285.082031 41.136719 C 287.476562 42.738281 289.828125 44.394531 292.140625 46.109375 C 294.453125 47.824219 296.722656 49.59375 298.945312 51.417969 C 301.171875 53.246094 303.351562 55.125 305.484375 57.058594 C 307.617188 58.992188 309.699219 60.972656 311.734375 63.007812 C 313.769531 65.046875 315.753906 67.128906 317.6875 69.261719 C 319.621094 71.394531 321.5 73.574219 323.324219 75.796875 C 325.152344 78.023438 326.921875 80.292969 328.636719 82.601562 C 330.351562 84.914062 332.007812 87.269531 333.605469 89.660156 C 335.207031 92.054688 336.746094 94.484375 338.226562 96.953125 C 339.703125 99.421875 341.125 101.925781 342.480469 104.464844 C 343.835938 107.003906 345.128906 109.574219 346.359375 112.175781 C 347.59375 114.777344 348.757812 117.410156 349.859375 120.066406 C 350.960938 122.726562 351.996094 125.410156 352.964844 128.121094 C 353.9375 130.832031 354.839844 133.5625 355.675781 136.316406 C 356.507812 139.074219 357.277344 141.847656 357.976562 144.636719 C 358.675781 147.429688 359.304688 150.238281 359.867188 153.0625 C 360.429688 155.882812 360.921875 158.71875 361.34375 161.566406 C 361.765625 164.414062 362.117188 167.269531 362.398438 170.132812 C 362.683594 172.996094 362.894531 175.867188 363.035156 178.742188 C 363.175781 181.617188 363.246094 184.492188 363.246094 187.371094 Z M 363.246094 187.371094 " fill-opacity="1" fill-rule="nonzero"/></g><g clip-path="url(#ca32893da3)"><path fill="#99e6fc" d="M 204.300781 362.441406 C 198.726562 362.972656 193.082031 363.246094 187.371094 363.246094 C 90.242188 363.246094 11.496094 284.5 11.496094 187.371094 C 11.496094 90.242188 90.242188 11.496094 187.371094 11.496094 C 193.082031 11.496094 198.726562 11.773438 204.300781 12.300781 C 115.105469 20.820312 45.351562 95.953125 45.351562 187.371094 C 45.351562 278.792969 115.105469 353.925781 204.300781 362.441406 Z M 204.300781 362.441406 " fill-opacity="1" fill-rule="nonzero"/></g><path fill="#ffffff" d="M 288.824219 183.621094 C 287.195312 181.125 284.414062 179.621094 281.433594 179.621094 L 243.601562 179.621094 C 238.730469 179.621094 234.777344 183.570312 234.777344 188.445312 C 234.777344 193.316406 238.730469 197.269531 243.601562 197.269531 L 267.914062 197.269531 L 243.125 253.660156 C 241.164062 258.121094 243.191406 263.328125 247.652344 265.289062 C 248.808594 265.796875 250.011719 266.039062 251.199219 266.039062 C 254.59375 266.039062 257.828125 264.066406 259.28125 260.761719 L 289.511719 191.996094 C 290.710938 189.265625 290.453125 186.117188 288.824219 183.621094 Z M 288.824219 183.621094 " fill-opacity="1" fill-rule="nonzero"/><path fill="#ffffff" d="M 141.398438 166.867188 C 142.984375 169.554688 145.875 171.203125 148.996094 171.203125 L 174.5 171.203125 C 174.472656 175.234375 174.441406 179.089844 174.410156 182.597656 C 174.367188 187.472656 178.285156 191.457031 183.15625 191.5 L 183.234375 191.5 C 188.074219 191.5 192.015625 187.597656 192.058594 182.753906 C 192.082031 179.96875 192.117188 175.925781 192.152344 171.203125 L 192.179688 171.203125 C 197.054688 171.203125 201.003906 167.253906 201.003906 162.378906 C 201.003906 157.535156 197.101562 153.605469 192.269531 153.558594 C 192.363281 137.171875 192.402344 120.390625 192.199219 117.941406 C 191.707031 112.019531 188.113281 107.179688 183.050781 105.613281 C 178.011719 104.050781 172.679688 105.964844 168.792969 110.734375 C 164.824219 115.601562 146.722656 148.230469 141.269531 158.117188 C 139.761719 160.851562 139.808594 164.175781 141.398438 166.867188 Z M 174.695312 134.714844 C 174.683594 140.246094 174.65625 146.785156 174.617188 153.554688 L 163.996094 153.554688 C 167.84375 146.6875 171.578125 140.105469 174.695312 134.714844 Z M 174.695312 134.714844 " fill-opacity="1" fill-rule="nonzero"/><path fill="#ffffff" d="M 140.804688 173.695312 C 134.660156 173.769531 128.167969 173.824219 122.53125 173.84375 C 126.234375 168.863281 131.164062 162.082031 137.601562 152.886719 C 142.0625 146.511719 144.980469 140.46875 146.261719 134.925781 C 146.492188 133.691406 146.792969 131.53125 146.832031 130.277344 C 146.832031 115.730469 134.996094 103.898438 120.449219 103.898438 C 107.871094 103.898438 96.984375 112.84375 94.5625 125.175781 C 93.625 129.957031 96.742188 134.59375 101.523438 135.535156 C 106.308594 136.472656 110.941406 133.355469 111.882812 128.574219 C 112.679688 124.503906 116.285156 121.546875 120.449219 121.546875 C 125.109375 121.546875 128.929688 125.214844 129.167969 129.8125 L 128.976562 131.324219 C 128.148438 134.542969 126.140625 138.488281 123.144531 142.765625 C 112.289062 158.277344 105.8125 166.757812 102.332031 171.3125 C 97.945312 177.054688 95.746094 179.9375 97.230469 184.765625 C 98.109375 187.625 100.269531 189.816406 103.160156 190.78125 C 104.355469 191.179688 105.375 191.519531 118.628906 191.519531 C 123.898438 191.519531 131.105469 191.464844 141.023438 191.339844 C 145.898438 191.28125 149.796875 187.28125 149.738281 182.40625 C 149.675781 177.535156 145.691406 173.652344 140.804688 173.695312 Z M 140.804688 173.695312 " fill-opacity="1" fill-rule="nonzero"/><path fill="#ffffff" d="M 247.925781 124.109375 C 243.710938 121.664062 238.308594 123.101562 235.863281 127.320312 L 166.386719 247.242188 C 163.945312 251.460938 165.382812 256.859375 169.597656 259.300781 C 170.992188 260.109375 172.511719 260.492188 174.015625 260.492188 C 177.058594 260.492188 180.023438 258.914062 181.660156 256.089844 L 251.136719 136.167969 C 253.578125 131.949219 252.140625 126.550781 247.925781 124.109375 Z M 247.925781 124.109375 " fill-opacity="1" fill-rule="nonzero"/><path fill="#fffefd" d="M 187.371094 69.425781 C 181.378906 69.425781 176.519531 64.566406 176.519531 58.574219 L 176.519531 34.25 C 176.519531 28.253906 181.378906 23.398438 187.371094 23.398438 C 193.363281 23.398438 198.222656 28.253906 198.222656 34.25 L 198.222656 58.574219 C 198.222656 64.566406 193.363281 69.425781 187.371094 69.425781 Z M 187.371094 69.425781 " fill-opacity="1" fill-rule="nonzero"/><path fill="#fffefd" d="M 187.371094 351.347656 C 181.378906 351.347656 176.519531 346.488281 176.519531 340.496094 L 176.519531 316.167969 C 176.519531 310.175781 181.378906 305.316406 187.371094 305.316406 C 193.363281 305.316406 198.222656 310.175781 198.222656 316.167969 L 198.222656 340.496094 C 198.222656 346.488281 193.363281 351.347656 187.371094 351.347656 Z M 187.371094 351.347656 " fill-opacity="1" fill-rule="nonzero"/><path fill="#fffefd" d="M 305.320312 187.371094 C 305.320312 181.378906 310.175781 176.519531 316.171875 176.519531 L 340.496094 176.519531 C 346.488281 176.519531 351.347656 181.378906 351.347656 187.371094 C 351.347656 193.363281 346.488281 198.222656 340.496094 198.222656 L 316.171875 198.222656 C 310.175781 198.222656 305.320312 193.363281 305.320312 187.371094 Z M 305.320312 187.371094 " fill-opacity="1" fill-rule="nonzero"/><path fill="#fffefd" d="M 23.398438 187.371094 C 23.398438 181.378906 28.257812 176.519531 34.25 176.519531 L 58.574219 176.519531 C 64.566406 176.519531 69.425781 181.378906 69.425781 187.371094 C 69.425781 193.363281 64.566406 198.222656 58.574219 198.222656 L 34.25 198.222656 C 28.253906 198.222656 23.398438 193.363281 23.398438 187.371094 Z M 23.398438 187.371094 " fill-opacity="1" fill-rule="nonzero"/><path fill="#fffefd" d="M 253.792969 72.332031 C 250.28125 70.304688 249.078125 65.816406 251.105469 62.304688 L 259.332031 48.054688 C 261.359375 44.542969 265.847656 43.339844 269.359375 45.367188 C 272.871094 47.394531 274.074219 51.882812 272.046875 55.394531 L 263.820312 69.644531 C 261.792969 73.15625 257.300781 74.359375 253.792969 72.332031 Z M 253.792969 72.332031 " fill-opacity="1" fill-rule="nonzero"/><path fill="#fffefd" d="M 105.386719 329.378906 C 101.875 327.351562 100.671875 322.863281 102.699219 319.351562 L 110.925781 305.101562 C 112.953125 301.589844 117.441406 300.386719 120.953125 302.414062 C 124.464844 304.441406 125.667969 308.929688 123.640625 312.441406 L 115.414062 326.691406 C 113.386719 330.203125 108.894531 331.40625 105.386719 329.378906 Z M 105.386719 329.378906 " fill-opacity="1" fill-rule="nonzero"/><path fill="#fffefd" d="M 302.414062 120.953125 C 300.386719 117.441406 301.589844 112.953125 305.101562 110.925781 L 319.351562 102.699219 C 322.859375 100.671875 327.351562 101.875 329.378906 105.386719 C 331.40625 108.894531 330.203125 113.386719 326.691406 115.414062 L 312.441406 123.640625 C 308.929688 125.667969 304.441406 124.464844 302.414062 120.953125 Z M 302.414062 120.953125 " fill-opacity="1" fill-rule="nonzero"/><path fill="#fffefd" d="M 45.367188 269.359375 C 43.339844 265.847656 44.542969 261.359375 48.054688 259.332031 L 62.304688 251.105469 C 65.8125 249.078125 70.304688 250.28125 72.332031 253.792969 C 74.359375 257.300781 73.15625 261.792969 69.644531 263.820312 L 55.394531 272.046875 C 51.882812 274.074219 47.394531 272.871094 45.367188 269.359375 Z M 45.367188 269.359375 " fill-opacity="1" fill-rule="nonzero"/><path fill="#fffefd" d="M 302.414062 253.792969 C 304.441406 250.28125 308.929688 249.078125 312.441406 251.105469 L 326.691406 259.332031 C 330.203125 261.359375 331.40625 265.847656 329.378906 269.359375 C 327.351562 272.871094 322.863281 274.074219 319.351562 272.046875 L 305.101562 263.820312 C 301.589844 261.792969 300.386719 257.300781 302.414062 253.792969 Z M 302.414062 253.792969 " fill-opacity="1" fill-rule="nonzero"/><path fill="#fffefd" d="M 45.367188 105.386719 C 47.394531 101.875 51.882812 100.671875 55.394531 102.699219 L 69.644531 110.925781 C 73.15625 112.953125 74.359375 117.441406 72.332031 120.953125 C 70.304688 124.464844 65.816406 125.667969 62.304688 123.640625 L 48.054688 115.414062 C 44.542969 113.386719 43.339844 108.894531 45.367188 105.386719 Z M 45.367188 105.386719 " fill-opacity="1" fill-rule="nonzero"/><path fill="#fffefd" d="M 253.792969 302.414062 C 257.300781 300.386719 261.792969 301.589844 263.820312 305.101562 L 272.046875 319.351562 C 274.074219 322.859375 272.871094 327.351562 269.359375 329.378906 C 265.847656 331.40625 261.359375 330.203125 259.332031 326.691406 L 251.105469 312.441406 C 249.078125 308.929688 250.28125 304.441406 253.792969 302.414062 Z M 253.792969 302.414062 " fill-opacity="1" fill-rule="nonzero"/><path fill="#fffefd" d="M 105.386719 45.367188 C 108.894531 43.339844 113.386719 44.542969 115.414062 48.054688 L 123.640625 62.304688 C 125.667969 65.8125 124.464844 70.304688 120.953125 72.332031 C 117.441406 74.359375 112.953125 73.15625 110.925781 69.644531 L 102.699219 55.394531 C 100.671875 51.882812 101.875 47.394531 105.386719 45.367188 Z M 105.386719 45.367188 " fill-opacity="1" fill-rule="nonzero"/></svg>