<svg xmlns="http://www.w3.org/2000/svg" xmlns:xlink="http://www.w3.org/1999/xlink" width="500" zoomAndPan="magnify" viewBox="0 0 375 374.999991" height="500" preserveAspectRatio="xMidYMid meet" version="1.0"><defs><clipPath id="63d92cf09d"><path d="M 8.835938 8.835938 L 365.835938 8.835938 L 365.835938 365.835938 L 8.835938 365.835938 Z M 8.835938 8.835938 " clip-rule="nonzero"/></clipPath><clipPath id="7203cd12ab"><path d="M 66 52 L 365.835938 52 L 365.835938 365.835938 L 66 365.835938 Z M 66 52 " clip-rule="nonzero"/></clipPath></defs><g clip-path="url(#63d92cf09d)"><path fill="#76c2af" d="M 365.835938 187.347656 C 365.835938 285.929688 285.921875 365.84375 187.335938 365.84375 C 88.753906 365.84375 8.835938 285.929688 8.835938 187.347656 C 8.835938 88.761719 88.753906 8.847656 187.335938 8.847656 C 285.921875 8.847656 365.835938 88.761719 365.835938 187.347656 " fill-opacity="1" fill-rule="nonzero"/></g><g clip-path="url(#7203cd12ab)"><path fill="#000000" d="M 183.433594 52.511719 C 148.679688 52.511719 120.519531 80.675781 120.519531 115.425781 C 120.519531 121.488281 123.34375 138.390625 129.453125 147.746094 C 129.453125 147.746094 152.40625 168.742188 183.375 196.394531 C 156.203125 196.601562 126.660156 196.722656 104.203125 211.488281 C 88.230469 221.992188 76.175781 240.515625 72.460938 259.265625 C 69.523438 274.09375 57.800781 292.355469 81.265625 303.746094 C 90.855469 308.398438 123.300781 334.613281 160.503906 363.824219 C 169.257812 365.144531 178.210938 365.84375 187.332031 365.84375 C 282.066406 365.84375 359.519531 292.03125 365.421875 198.792969 C 297.921875 133.734375 212.695312 59.71875 212.695312 59.71875 C 203.9375 54.800781 188.738281 52.515625 183.425781 52.515625 Z M 183.433594 52.511719 " fill-opacity="0.1961" fill-rule="nonzero"/></g><path fill="#ffffff" d="M 246.351562 115.203125 C 246.351562 117.265625 246.25 119.320312 246.050781 121.371094 C 245.847656 123.421875 245.546875 125.457031 245.144531 127.476562 C 244.742188 129.5 244.242188 131.496094 243.644531 133.46875 C 243.046875 135.441406 242.351562 137.378906 241.5625 139.28125 C 240.773438 141.183594 239.894531 143.046875 238.921875 144.863281 C 237.953125 146.679688 236.894531 148.445312 235.75 150.160156 C 234.605469 151.875 233.378906 153.527344 232.070312 155.121094 C 230.761719 156.714844 229.382812 158.238281 227.921875 159.695312 C 226.464844 161.152344 224.941406 162.535156 223.347656 163.84375 C 221.753906 165.148438 220.101562 166.375 218.390625 167.519531 C 216.675781 168.664062 214.910156 169.722656 213.09375 170.695312 C 211.273438 171.667969 209.414062 172.546875 207.511719 173.332031 C 205.605469 174.121094 203.667969 174.816406 201.695312 175.414062 C 199.726562 176.011719 197.726562 176.511719 195.707031 176.914062 C 193.6875 177.316406 191.648438 177.617188 189.597656 177.820312 C 187.546875 178.023438 185.492188 178.125 183.433594 178.125 C 181.371094 178.125 179.316406 178.023438 177.265625 177.820312 C 175.214844 177.617188 173.179688 177.316406 171.15625 176.914062 C 169.136719 176.511719 167.140625 176.011719 165.167969 175.414062 C 163.195312 174.816406 161.257812 174.121094 159.351562 173.332031 C 157.449219 172.546875 155.589844 171.667969 153.769531 170.695312 C 151.953125 169.722656 150.1875 168.664062 148.476562 167.519531 C 146.761719 166.375 145.109375 165.148438 143.515625 163.84375 C 141.921875 162.535156 140.398438 161.152344 138.941406 159.695312 C 137.484375 158.238281 136.101562 156.714844 134.792969 155.121094 C 133.484375 153.527344 132.261719 151.871094 131.113281 150.160156 C 129.96875 148.445312 128.914062 146.679688 127.941406 144.863281 C 126.96875 143.046875 126.089844 141.183594 125.300781 139.28125 C 124.511719 137.378906 123.820312 135.4375 123.21875 133.46875 C 122.621094 131.496094 122.121094 129.5 121.71875 127.476562 C 121.316406 125.457031 121.015625 123.421875 120.8125 121.371094 C 120.613281 119.320312 120.511719 117.265625 120.511719 115.203125 C 120.511719 113.140625 120.613281 111.085938 120.8125 109.035156 C 121.015625 106.984375 121.316406 104.949219 121.71875 102.925781 C 122.121094 100.90625 122.621094 98.910156 123.21875 96.9375 C 123.820312 94.964844 124.511719 93.027344 125.300781 91.121094 C 126.089844 89.21875 126.96875 87.359375 127.941406 85.542969 C 128.914062 83.722656 129.96875 81.957031 131.113281 80.246094 C 132.261719 78.53125 133.484375 76.878906 134.792969 75.285156 C 136.101562 73.691406 137.484375 72.167969 138.941406 70.710938 C 140.398438 69.253906 141.921875 67.871094 143.515625 66.5625 C 145.109375 65.257812 146.761719 64.03125 148.476562 62.882812 C 150.1875 61.742188 151.953125 60.683594 153.769531 59.710938 C 155.589844 58.738281 157.449219 57.859375 159.351562 57.070312 C 161.257812 56.28125 163.195312 55.589844 165.167969 54.992188 C 167.140625 54.394531 169.136719 53.894531 171.15625 53.492188 C 173.179688 53.089844 175.214844 52.789062 177.265625 52.585938 C 179.316406 52.382812 181.371094 52.28125 183.433594 52.28125 C 185.492188 52.28125 187.546875 52.382812 189.597656 52.585938 C 191.648438 52.789062 193.6875 53.089844 195.707031 53.492188 C 197.726562 53.890625 199.726562 54.394531 201.695312 54.992188 C 203.667969 55.589844 205.605469 56.28125 207.511719 57.070312 C 209.414062 57.859375 211.273438 58.738281 213.09375 59.710938 C 214.910156 60.683594 216.675781 61.742188 218.390625 62.886719 C 220.101562 64.03125 221.753906 65.257812 223.347656 66.5625 C 224.941406 67.871094 226.464844 69.253906 227.921875 70.710938 C 229.382812 72.167969 230.761719 73.691406 232.070312 75.285156 C 233.378906 76.878906 234.605469 78.53125 235.75 80.246094 C 236.894531 81.957031 237.953125 83.722656 238.921875 85.542969 C 239.894531 87.359375 240.773438 89.21875 241.5625 91.121094 C 242.351562 93.027344 243.046875 94.964844 243.644531 96.9375 C 244.242188 98.910156 244.742188 100.90625 245.144531 102.925781 C 245.546875 104.949219 245.847656 106.984375 246.050781 109.035156 C 246.25 111.085938 246.351562 113.140625 246.351562 115.203125 Z M 246.351562 115.203125 " fill-opacity="1" fill-rule="nonzero"/><path fill="#ffffff" d="M 303.398438 258.746094 C 305.777344 273.738281 316.046875 291.671875 293.085938 303.101562 C 270.128906 314.535156 223.921875 321.671875 187.929688 321.671875 C 151.933594 321.671875 104.726562 314.625 81.261719 303.234375 C 57.796875 291.847656 69.523438 273.574219 72.460938 258.746094 C 76.175781 239.992188 88.226562 221.484375 104.199219 210.980469 C 127.898438 195.394531 159.566406 196.09375 187.929688 195.820312 C 216.910156 195.546875 249.742188 193.460938 273.765625 209.675781 C 289.601562 220.367188 300.398438 239.875 303.394531 258.746094 Z M 303.398438 258.746094 " fill-opacity="1" fill-rule="nonzero"/><path fill="#4f5d73" d="M 187.335938 320.476562 L 162.289062 284.957031 L 187.335938 225.027344 L 212.382812 284.957031 Z M 187.335938 231.488281 L 162.289062 195.96875 L 212.382812 195.96875 Z M 187.335938 231.488281 " fill-opacity="1" fill-rule="nonzero"/></svg>